#N canvas 320 209 450 300 12;
#X obj 107 218 dac~;
#X obj 177 158 line~;
#X obj 107 176 *~;
#X obj 107 24 r freq;
#X floatatom 107 63 5 0 0 0 - - -;
#X obj 107 99 osc~;
#X obj 107 134 hip~;
#X obj 177 84 tgl 15 0 empty empty empty 17 7 0 10 -262144 -1 -1 0
1;
#X obj 177 24 r toggle;
#X connect 1 0 2 1;
#X connect 2 0 0 0;
#X connect 2 0 0 1;
#X connect 3 0 4 0;
#X connect 4 0 5 0;
#X connect 5 0 6 0;
#X connect 6 0 2 0;
#X connect 7 0 1 0;
#X connect 8 0 7 0;
